<svg xmlns="http://www.w3.org/2000/svg" viewBox="-260.5 -143 1920 1080">
    <path fill="#54C3FF"
          d="M-4283.3-877.2v2610h9976v-2610h-9976zM982.9 483.9v-.2c.1.1.1.2 0 .2-5.2 19.4-2.3 8.6 0 0-10.9 39.9-80.8 25.4-108 15.6-64.9-23.3-123.8-54.5-193.4-63.1-39.9-4.9-80.3-7.3-120.5-9.6-32.6-1.9-68.4 3.9-100-5.4-63.8-19-34.6-89.1-21.1-133.4 31.7-37.2 111.8 13.8 146.7 13.1 33.3-.7 63.8-15.6 92.5-30.8 32.2-17.1 57.3 1.6 87.8 8.1 32.3 6.8 61.4 7.3 93.9 9.9 34.6 2.7 26.1 32.7 28.5 58 2.9 30.7 41.5 42.6 59.9 63.5 16.9 19.3 41.3 45.9 33.7 74 3.3-11.6 1.8-6.5 0 .1zM837.3 685.4c.1-.4.3-.8.5-1.4l-.5 1.4c0 .1-.1.3-.1.4l-.1.2.1-.2c-14.8 38.3-135-34.1-157-44.9-27.5-13.5-194-78.7-113-120.2 35.5-18.2 116 8.8 150.1 24.8 42.4 19.8 143.3 78.2 120 139.9zm2-5.2c.1-.2.1-.2 0 0zm0 .2l-.1.1.1-.1zm-.3.6l-.4 1 .4-1zm-.6 1.7l-.1.4.1-.4zm288-501.1l.2-.1s-.1.1-.2.1zm1.1-.5l.2-.1-.2.1zm.3-.2c.2 0 .2 0 0 0zm-2.9 1.4c-47.6 22.9-124.4 20.6-175.8 18.5-21.3-.9-51.8-7.9-68.2-22.6-24.3-21.8-.1-59.4 19.6-74.2 20-14.9 34.2-3.6 57-9.7 15-4 26.3-17.2 42.5-21.2 17.2-4.2 34.5-4.6 51.1 2.1 18.8 7.6 115.4 87.1 73.8 107.1z"/>
</svg>