<svg xmlns="http://www.w3.org/2000/svg" viewBox="-260.5 -143 1920 1080">
    <path fill="#ADECFF"
          d="M-4283.3-877.2v2610h9976v-2610h-9976zM962.3 544c6.9-1.7 11.5-2.8 0 0-35.2 8.5-71.1-4.2-103.8-16-41.5-15-83.7-28.4-126.1-40.6-80.6-23.1-158.9-28.5-241.1-40.1-37.6-5.3-124.6-6.9-130.6-56.2-4.4-35.5 19.9-62 42.3-86.1 10.1-10.9 16.5-19.9 21.4-33.7 5.9-16.6 30.4-15.4 45.3-16.4 35.1-2.4 63.7 11.7 97.5 15.5 38.6 4.4 77.1-9.7 114.9-15.5 34.8-5.3 68.8-5.9 102.9 3.9 34.9 10.1 74.8 9 107.6 25.5 25.5 12.9 37.6 52.6 55.7 74 26 30.8 52.2 60.3 71.5 96.1 11.2 20.7 30 55.2 4 72.5-18 11.8-41.2 12.2-61.5 17.1zM860.9 705.6c0-.1 0-.2.1-.3 0 .1 0 .2-.1.3 0 .2-.1.4-.1.6.1-.2.1-.4.1-.6-5.9 27.7-76.9 8.1-91.4 3.5-45.8-14.5-87.1-35.1-127.9-60.5-20.1-12.5-37.3-29-57.3-41.7-16.7-10.6-35.6-20.5-47.2-37.2-19.1-27.3 11.3-46.9 29.6-59.6 26.2-8.6 60.3 4.7 86.8 5.8 33.6 1.3 74.4 12.9 102.3 32.1 41.7 28.8 117.1 99.3 105.2 157.2.4-1.6.2-.9-.1.4zm-.2 1c-.5 2.6-.8 3.7-.8 4 .1-.4.5-2.4.8-4zm300.9-535.1c-12.5 53.9-151 44.7-189.9 44.5-61.8-.5-134.9-19.4-109.6-97.3 8.7-26.8 27.8-35.3 54.4-36.3 16.1-.6 27.7-6.1 40.6-15.1 17.8-12.5 37.9-9.6 58.6-8.5 29.5 1.5 73 22.9 91.5 47.3 9.5 12.5 16.2 26.5 30.4 34.7 11.7 6.6 27.9 13.7 24 30.7z"/>
</svg>