<svg xmlns="http://www.w3.org/2000/svg" viewBox="-260.5 -143 1920 1080">
    <path fill="#0887CB"
          d="M-4283.3-877.2v2610h9976v-2610h-9976zM917.2 396.1c19 10.6 72 85.5 21.8 87.9l10.9-.5-10.9.5c-15.5.7-8.2.4 0 0-55.1 2.6-111.8-42.3-164.4-56.1-70.2-18.4-144.7-12.8-216.5-16.1-48.7-2.2-128.4-3.9-122.1-73.9 2.1-23.6 20.5-45.4 43.8-50.9 24.8-5.8 40.4 18.5 60.8 27.3 21.7 9.3 53.2-2.1 76.2-3.2 32.5-1.6 59.2-26.2 89.9-34.7 21.8-6 39.7 12.4 58.8 19.2 25.4 9.1 53.3-.4 79.1-.5 34.9 0 19.8 37.2 19.4 57.9-.4 23.1 37 34 53.2 43.1zM791 672.9c-25.7-5.5-51.7-24.9-74.8-37.1-29.5-15.5-59.3-27.8-89.9-40.9-16.8-7.2-38.5-14.8-52-27.4-15.4-14.4-3.8-33.6 14.8-35.9 49.9-6 93.5 17.7 137.8 36 25.3 10.5 45.6 29 61.6 51 5.9 8.3 35.2 61.3 2.5 54.3zm325.1-512.1c-8.2 37-102.4 11.3-125.6 11.2-25.1-.2-51.1 7.8-75.4-2.3-23.4-9.7-26.1-36.1-10.3-55.6 14.5-17.9 39 5.7 57.7-2.1 20.9-8.7 31.4-31.1 55.5-32.5 21.2-1.3 45.4 10.8 62.8 24.3 15.5 12 39.7 37.1 35.3 57z"/>
</svg>