<svg xmlns="http://www.w3.org/2000/svg" viewBox="-260.5 -143 1920 1080">
    <path fill="#FFF"
          d="M-4283.3-877.2v2610h9976v-2610h-9976zM924.4 587c-76.3 35.7 33.1 149.2-60.1 163.3-79.8 12-168.9-13.7-235.3-56.9-37-24.1-70.5-52.9-106.5-78.4-37.3-26.4-28.7-42.7-23.9-83.1 8.5-71.1-124.9-50.8-167.4-87.9-32.8-28.6-13.7-75.7.6-109 12.9-30.1 21.1-69 40.4-95.5 21-28.8 58.5-20.3 89.4-20.5 46.8-.2 92.5 12.1 139.3 12.1 47.6 0 94-9.9 141.9-8.5 24 .7 83.6-3.6 102.1 15.5 5.2 12.8 57.3 18.8 68.5 23.4 30.5 12.7 53.2 36.3 73.8 61.5 33.9 41.5 111.8 107.8 108.8 167-4.9 96.6-112 69-171.6 97zm171.1-87.5v.1-.1zm1-18.8c0-.2 0-.2 0 0zm95.2-312.4c-2.9 60.4-113.6 61.2-153.3 64.4-67.9 5.4-150.5 10.8-201.8-42.4-19.3-20-19.8-52-12.2-77.2 10.3-33.8 34.9-44.5 67.7-48.4 32-3.9 59.5-23.8 89.9-26.8 36.3-3.6 68 6.7 97.6 25.1 12.1 7.5 38.1 39.5 57.8 57.5 17.1 15.5 55.7 18 54.3 47.8z"/>
</svg>