<svg t="1720561034284" class="icon" viewBox="0 0 1024 1024" version="1.1" xmlns="http://www.w3.org/2000/svg" p-id="5928" width="200" height="200"><path d="M579.800805 511.868432c-11.668045 0-23.34121 10.835638-23.34121 24.174642 0 10.837685 11.667022 21.675371 23.34121 21.675371 17.512307 0 30.015832-10.837685 30.015832-21.675371C609.816637 522.705094 597.313112 511.868432 579.800805 511.868432L579.800805 511.868432zM503.098457 399.310086c18.341643 0 30.015832-11.668045 30.015832-29.181376 0-18.342667-11.673165-29.179329-30.015832-29.179329-17.508211 0-34.184015 10.837685-34.184015 29.179329C468.913418 387.643065 485.590245 399.310086 503.098457 399.310086L503.098457 399.310086zM512.269278 0.560058c-282.619393 0-511.724066 229.104674-511.724066 511.724066 0 282.617345 229.104674 511.722019 511.724066 511.722019 282.617345 0 511.722019-229.104674 511.722019-511.722019C1023.992321 229.664732 794.887647 0.560058 512.269278 0.560058L512.269278 0.560058zM415.557399 641.927823c-30.851312 0-53.362162-4.998543-82.542514-13.339005l-84.20733 42.524476 24.182833-71.705853c-59.196184-41.682854-94.216703-94.209536-94.216703-158.408359 0-113.388706 106.719204-200.09838 236.784738-200.09838 115.054546 0 217.605567 68.36803 237.614074 165.085028-8.336366-1.671983-15.842372-2.501319-22.51085-2.501319-113.388706 0-200.92874 85.038714-200.92874 187.589735 0 17.506164 2.501319 33.346488 6.670526 50.024339C429.732907 641.927823 422.226902 641.927823 415.557399 641.927823L415.557399 641.927823zM763.227477 723.633834l16.671708 60.032688-63.363344-35.849855c-24.17669 4.998543-47.52302 12.503525-71.69971 12.503525-111.722867 0-200.09838-76.702348-200.09838-171.747364 0-95.046039 88.376537-171.749411 200.09838-171.749411 105.882701 0 200.92874 76.703372 200.92874 171.749411C845.764871 641.927823 809.915017 689.450843 763.227477 723.633834L763.227477 723.633834zM338.018548 340.949381c-17.508211 0-35.849855 10.837685-35.849855 29.179329 0 17.513331 18.341643 29.186496 35.849855 29.186496 16.676827 0 30.015832-11.673165 30.015832-29.186496C368.03438 351.787067 354.695375 340.949381 338.018548 340.949381L338.018548 340.949381zM710.701818 511.868432c-12.508644 0-23.34633 10.835638-23.34633 24.174642 0 10.837685 10.837685 21.675371 23.34633 21.675371 16.671708 0 29.179329-10.837685 29.179329-21.675371C739.881147 522.705094 727.373526 511.868432 710.701818 511.868432L710.701818 511.868432zM710.701818 511.868432" fill="#edddd0" p-id="5929"></path></svg>